<svg width="18" height="38" viewBox="0 0 18 38" fill="none" xmlns="http://www.w3.org/2000/svg">
<path d="M16.4215 8.00714C14.9287 8.075 12.7572 9.56786 11.5358 10.925C13.1644 6.71786 16.6251 1.69643 17.2358 1.15357C16.4894 1.22143 13.2322 3.73214 11.6037 6.10714C12.0787 3.93571 12.6215 2.23929 12.8929 1.62857C11.4001 2.44286 9.97509 5.02143 9.36438 6.31071C8.6858 3.59643 6.71795 0.271429 6.03938 0C6.24295 0.542857 6.71796 3.46071 6.98938 6.71786C5.63225 4.13929 1.76438 1.01786 0.950096 0.95C1.35724 1.49286 4.47867 6.10714 6.10725 10.1786C4.54653 9.025 1.96795 8.00714 0.475098 8.21071C1.15367 8.48214 4.68225 10.7214 6.6501 12.8929V12.9607C5.08939 12.0786 2.64653 11.4679 1.01796 11.7393C1.69653 11.9429 5.02153 13.5714 6.98938 15.4714C6.1751 15.0643 3.8001 14.1143 2.30724 14.6571C2.98581 14.9286 5.29295 15.8786 7.05723 17.8464C6.37867 17.575 5.15724 17.2357 4.20724 17.9143C5.49652 18.1179 6.37867 18.6607 6.98938 19.0679C4.68225 19.3393 1.49295 20.6964 1.62867 25.7179C1.69652 27.8893 2.03582 31.7571 2.03582 31.7571C2.03582 31.7571 1.69652 32.5714 1.83224 33.25C1.96795 33.9286 2.23938 34.4714 3.52867 34.675C4.7501 34.8786 5.08939 35.0821 5.29296 36.0321C5.29296 36.0321 5.36082 36.6429 5.42867 36.8464C5.49653 37.05 5.49653 37.2536 6.24295 37.3893C6.98938 37.525 7.53223 37.8643 8.07509 37.8643C8.61795 37.8643 9.77152 38 10.3144 37.8643C10.8572 37.6607 11.2644 37.3893 11.5358 37.2536C11.7394 37.1179 12.0108 37.05 12.0108 36.2357C11.9429 34.8786 12.6215 34.7429 13.6394 34.4036C14.9965 33.9964 15.4037 33.3857 15.4037 32.5714C15.4037 31.6893 15.1322 31.1464 15.1322 31.1464C15.1322 31.1464 15.4715 25.9214 15.4715 24.4964C15.4715 22.325 13.4358 20.1536 10.3822 19.3393C10.8572 18.7964 11.6715 18.1857 12.7572 17.7786C12.0787 17.4393 11.3322 17.575 10.7894 17.8464C12.2144 16.7607 13.6394 16.15 14.1144 15.9464C13.3001 15.675 12.2822 15.8107 11.3322 16.0821C12.8929 13.9107 15.6751 11.7393 16.2179 11.4C14.7251 11.4679 12.8251 12.35 11.4679 13.4357C13.0965 10.9929 15.8787 8.34643 16.4215 8.00714ZM6.71795 31.2821C6.1751 31.7571 5.90367 32.0964 5.15725 32.1643C4.41082 32.2321 3.39295 32.1643 3.18938 31.6893C2.98581 31.2143 2.8501 30.4 2.8501 30.4C2.8501 30.0607 2.91796 29.3143 3.8001 28.9071C4.68225 28.4321 5.29296 28.3643 5.97153 28.5C6.6501 28.5679 6.7858 28.6357 7.05723 29.6536C7.39652 30.4679 7.2608 30.7393 6.71795 31.2821ZM9.50009 34.8786C8.6858 35.0143 8.95723 34.0643 8.55009 34.0643C8.2108 34.0643 8.41438 34.8786 7.46438 34.4036C6.92152 34.1321 7.12509 33.6571 7.2608 33.5214C7.32866 33.3857 7.53223 32.5714 7.66795 32.1643C7.80366 31.825 8.2108 31.0786 8.55009 31.0786C9.02509 31.0786 10.1787 33.3857 10.1787 33.7929C10.1108 34.1321 9.97509 34.8107 9.50009 34.8786ZM12.6894 28.4321C13.0287 28.5 13.3679 28.8393 14.0465 29.45C14.7251 30.0607 14.1144 31.0786 13.7751 31.7571C13.4358 32.4357 12.8251 32.5036 12.1465 32.4357C11.4001 32.3679 10.8572 31.9607 10.2465 31.5536C9.6358 31.1464 9.83938 30.4 10.1108 29.3143C10.3822 28.1607 10.6537 28.3643 11.0608 28.2964C11.4001 28.2964 12.3501 28.3643 12.6894 28.4321Z" fill="white"/>
</svg>